<svg enable-background="new 0 0 35.1 33.3" version="1.1" viewBox="0 0 35.1 33.3" xml:space="preserve" xmlns="http://www.w3.org/2000/svg">
    <path class="st1" d="m8.5 28.7c0 1.7 1.3 3 3 3s3-1.3 3-3-1.3-3-3-3-3 1.3-3 3zm5.3 0c0 1.2-1 2.3-2.3 2.3s-2.3-1-2.3-2.3 1-2.3 2.3-2.3 2.3 1 2.3 2.3z"/>
    <path class="st1" d="m22.8 28.7c0 1.7 1.3 3 3 3s3-1.3 3-3-1.3-3-3-3-3 1.3-3 3zm5.2 0c0 1.2-1 2.3-2.3 2.3s-2.3-1-2.3-2.3 1-2.3 2.3-2.3 2.3 1 2.3 2.3z"/>
    <path class="st1" d="M33.3,6.5H7.5L6.7,1.8H1.6v0.8h4.5L9.6,23h19.2v-0.8H10.2l-0.7-3.9h20.4L33.3,6.5z M9.4,17.6L7.6,7.3h24.6    l-2.9,10.3H9.4z"/>
</svg>