<?xml version="1.0" encoding="utf-8"?>
<!-- Generator: Adobe Illustrator 22.0.0, SVG Export Plug-In . SVG Version: 6.00 Build 0)  -->
<svg version="1.2" baseProfile="tiny" id="Capa_1" xmlns="http://www.w3.org/2000/svg" xmlns:xlink="http://www.w3.org/1999/xlink"
	 x="0px" y="0px" viewBox="0 0 52.4 54.1" xml:space="preserve">
<g>
	<polygon fill="#030303" stroke="#FFFFFF" stroke-width="2" stroke-miterlimit="10" points="39.4,20.6 22.7,37.3 13.3,27.9 
		16.3,24.9 22.7,31.3 36.4,17.6 	"/>
	<path fill="#030303" stroke="#FFFFFF" stroke-width="2" stroke-miterlimit="10" d="M26.1,52.3c-13.8,0-25-11.2-25-25
		c0-13.8,11.2-25,25-25s25,11.2,25,25C51.2,41.1,39.9,52.3,26.1,52.3z M26.1,6.2C14.5,6.2,5,15.7,5,27.3s9.4,21.1,21.1,21.1
		c11.6,0,21.1-9.4,21.1-21.1S37.8,6.2,26.1,6.2z"/>
</g>
</svg>
