<svg xmlns="http://www.w3.org/2000/svg" viewBox="0 0 32 29.83"><defs><style>.cls-1{fill:#333;}</style></defs><title>Asset 1</title><g id="Layer_2" data-name="Layer 2"><g id="menu"><path class="cls-1" d="M16,2.69c4.27,0,4.78,0,6.47.08a9.33,9.33,0,0,1,3,.52A5.07,5.07,0,0,1,27.28,4.4a4.56,4.56,0,0,1,1.19,1.72A7.67,7.67,0,0,1,29,8.89c.08,1.57.1,2,.1,6s0,4.46-.1,6a7.78,7.78,0,0,1-.55,2.77,4.6,4.6,0,0,1-1.19,1.71,5.09,5.09,0,0,1-1.84,1.12,9.42,9.42,0,0,1-3,.51c-1.69.07-2.2.09-6.47.09s-4.78,0-6.47-.09a9.42,9.42,0,0,1-3-.51,5.09,5.09,0,0,1-1.84-1.12,4.6,4.6,0,0,1-1.19-1.71A7.78,7.78,0,0,1,3,20.94c-.08-1.57-.1-2.05-.1-6s0-4.45.1-6a7.67,7.67,0,0,1,.55-2.77A4.56,4.56,0,0,1,4.72,4.4,5.07,5.07,0,0,1,6.56,3.29a9.33,9.33,0,0,1,3-.52c1.69-.07,2.2-.08,6.47-.08M16,0c-4.35,0-4.89,0-6.6.09A12.4,12.4,0,0,0,5.52.78,7.82,7.82,0,0,0,2.69,2.5,7.31,7.31,0,0,0,.84,5.14,10.08,10.08,0,0,0,.1,8.76C0,10.35,0,10.86,0,14.91s0,4.56.1,6.15a10,10,0,0,0,.74,3.62,7.31,7.31,0,0,0,1.85,2.64A7.82,7.82,0,0,0,5.52,29a12.66,12.66,0,0,0,3.88.7c1.71.07,2.25.09,6.6.09s4.89,0,6.6-.09a12.66,12.66,0,0,0,3.88-.7,7.82,7.82,0,0,0,2.83-1.72,7.31,7.31,0,0,0,1.85-2.64,10,10,0,0,0,.74-3.62c.08-1.59.1-2.1.1-6.15s0-4.56-.1-6.15a10.08,10.08,0,0,0-.74-3.62A7.31,7.31,0,0,0,29.31,2.5,7.82,7.82,0,0,0,26.48.78,12.4,12.4,0,0,0,22.6.09C20.89,0,20.35,0,16,0Z"/><path class="cls-1" d="M16,7.25a8,8,0,0,0-8.22,7.66A8,8,0,0,0,16,22.57a8,8,0,0,0,8.22-7.66A8,8,0,0,0,16,7.25Zm0,12.63a5.15,5.15,0,0,1-5.33-5,5.16,5.16,0,0,1,5.33-5,5.16,5.16,0,0,1,5.33,5A5.15,5.15,0,0,1,16,19.88Z"/><ellipse class="cls-1" cx="24.54" cy="6.95" rx="1.92" ry="1.79"/></g></g></svg>