<svg xmlns="http://www.w3.org/2000/svg" viewBox="0 0 113.38 16.95">
    <path d="M642,393l-.91-2.76h-6.48l-.91,2.76H627l7.32-16.95h6.91L648.55,393Zm-4.17-12.24-1.95,5.74h3.94Z" transform="translate(-626.98 -376.05)"/>
    <path d="M679.06,391c-1.56,1.87-4.3,2-6.46,2h-13V376.05H673.8c1.7,0,3.79.12,4.8,1.78a4,4,0,0,1,.58,2.18,3.88,3.88,0,0,1-.72,2.36,4.54,4.54,0,0,1-2.52,1.46,5.35,5.35,0,0,1,2.85,1.06A3.66,3.66,0,0,1,680,388,4.48,4.48,0,0,1,679.06,391Zm-6.58-4.78h-6.84v3H672a4.22,4.22,0,0,0,.85-.08,1.39,1.39,0,0,0,1.15-1.48A1.33,1.33,0,0,0,672.48,386.18Zm.7-5.71a1.5,1.5,0,0,0-1.44-.6h-6v2.64h5.61c.63,0,1.52.05,1.9-.65a1.55,1.55,0,0,0,.17-.67A1.32,1.32,0,0,0,673.18,380.47Z" transform="translate(-626.98 -376.05)"/>
    <path d="M704.45,393l-3.51-6.17h-3.21V393h-6.1V376.05h12.48c2.28,0,4.47.17,5.84,2.33a5.67,5.67,0,0,1,.86,3.05,4.72,4.72,0,0,1-2.3,4.23,5,5,0,0,1-1.59.57l4.23,6.77Zm0-12.41a1.91,1.91,0,0,0-1.73-.69h-5V383h4.56c1.15,0,1.75-.15,2.13-.61a1.41,1.41,0,0,0,.34-1A1.53,1.53,0,0,0,704.5,380.59Z" transform="translate(-626.98 -376.05)"/>
    <path d="M722.26,393V376.05h17.88v3.8H728.33v2.78h10.92v3.82H728.33v2.71h12V393Z" transform="translate(-626.98 -376.05)"/>
</svg>